<svg id="baseline-format_list_bulleted-24px" xmlns="http://www.w3.org/2000/svg" width="27.221" height="27.221" viewBox="0 0 27.221 27.221">
  <path id="패스_1269" data-name="패스 1269" d="M4.2,11.305a1.7,1.7,0,1,0,1.7,1.7A1.7,1.7,0,0,0,4.2,11.305ZM4.2,4.5A1.7,1.7,0,1,0,5.9,6.2,1.7,1.7,0,0,0,4.2,4.5Zm0,13.61a1.7,1.7,0,1,0,1.7,1.7A1.706,1.706,0,0,0,4.2,18.11Zm3.4,2.836H23.483V18.678H7.6Zm0-6.805H23.483V11.872H7.6Zm0-9.074V7.336H23.483V5.067Z" transform="translate(0.336 0.604)"/>
  <path id="패스_1270" data-name="패스 1270" d="M0,0H27.221V27.221H0Z" fill="none"/>
</svg>
