<svg id="outline-https-24px" xmlns="http://www.w3.org/2000/svg" width="24" height="24" viewBox="0 0 24 24">
  <g id="Bounding_Boxes">
    <path id="패스_2361" data-name="패스 2361" d="M0,0H24V24H0Z" fill="none"/>
  </g>
  <g id="Outline" transform="translate(4 1)">
    <path id="패스_2362" data-name="패스 2362" d="M18,8H17V6A5,5,0,0,0,7,6V8H6a2.006,2.006,0,0,0-2,2V20a2.006,2.006,0,0,0,2,2H18a2.006,2.006,0,0,0,2-2V10A2.006,2.006,0,0,0,18,8ZM9,6a3,3,0,0,1,6,0V8H9Zm9,14H6V10H18Zm-6-3a2,2,0,1,0-2-2A2.006,2.006,0,0,0,12,17Z" transform="translate(-4 -1)"/>
  </g>
</svg>
