<svg id="Outline" xmlns="http://www.w3.org/2000/svg" width="20.416" height="20.416" viewBox="0 0 20.416 20.416">
  <g id="그룹_283" data-name="그룹 283">
    <path id="패스_3126" data-name="패스 3126" d="M12.4,12.805A3.4,3.4,0,1,0,9,9.4,3.413,3.413,0,0,0,12.4,12.805Zm0-4.537A1.134,1.134,0,1,1,11.268,9.4,1.138,1.138,0,0,1,12.4,8.268Z" transform="translate(-2.195 -2.597)"/>
    <path id="패스_3127" data-name="패스 3127" d="M19.61,17.06c0-2.836-4.5-4.06-6.805-4.06S6,14.225,6,17.06v1.611H19.61ZM8.813,16.4a7.987,7.987,0,0,1,3.992-1.134A7.987,7.987,0,0,1,16.8,16.4Z" transform="translate(-2.597 -1.658)"/>
    <path id="패스_3128" data-name="패스 3128" d="M21.147,3H5.268A2.268,2.268,0,0,0,3,5.268V21.147a2.268,2.268,0,0,0,2.268,2.268H21.147a2.275,2.275,0,0,0,2.268-2.268V5.268A2.275,2.275,0,0,0,21.147,3Zm0,18.147H5.268V5.268H21.147Z" transform="translate(-3 -3)"/>
  </g>
</svg>
