<svg id="outline-person-24px" xmlns="http://www.w3.org/2000/svg" width="26.55" height="26.55" viewBox="0 0 26.55 26.55">
  <g id="Bounding_Boxes">
    <path id="패스_3493" data-name="패스 3493" d="M0,0H26.55V26.55H0Z" fill="none"/>
  </g>
  <g id="Outline" transform="translate(4.425 4.425)">
    <path id="패스_3494" data-name="패스 3494" d="M12.85,6.212a2.212,2.212,0,1,1-2.212,2.212A2.219,2.219,0,0,1,12.85,6.212m0,11.062c2.987,0,6.416,1.427,6.637,2.213H6.212c.254-.8,3.662-2.213,6.637-2.213M12.85,4a4.425,4.425,0,1,0,4.425,4.425A4.424,4.424,0,0,0,12.85,4Zm0,11.062C9.9,15.062,4,16.545,4,19.487V21.7H21.7V19.487c0-2.943-5.9-4.425-8.85-4.425Z" transform="translate(-4 -4)"/>
  </g>
</svg>
