<svg id="outline-brightness_7-24px" xmlns="http://www.w3.org/2000/svg" width="25.221" height="25.221" viewBox="0 0 25.221 25.221">
  <g id="Bounding_Boxes">
    <path id="패스_3005" data-name="패스 3005" d="M0,0H25.221V25.221H0Z" fill="none"/>
  </g>
  <g id="Outline_1_" transform="translate(0.725 0.725)">
    <g id="그룹_251" data-name="그룹 251">
      <path id="패스_3006" data-name="패스 3006" d="M20.982,9.1V4.168H16.054L12.575.69,9.1,4.168H4.168V9.1L.69,12.575l3.478,3.478v4.929H9.1l3.478,3.478,3.478-3.478h4.929V16.054l3.478-3.478Zm-2.1,6.085v3.7h-3.7l-2.606,2.606L9.969,18.881H6.27v-3.7L3.664,12.575,6.27,9.969V6.27h3.7l2.606-2.606L15.182,6.27h3.7v3.7l2.606,2.606Z" transform="translate(-0.69 -0.69)"/>
      <path id="패스_3007" data-name="패스 3007" d="M12.28,6.5a5.78,5.78,0,1,0,5.78,5.78A5.79,5.79,0,0,0,12.28,6.5Zm0,9.458a3.678,3.678,0,1,1,3.678-3.678A3.682,3.682,0,0,1,12.28,15.958Z" transform="translate(-0.394 -0.394)"/>
      <circle id="타원_98" data-name="타원 98" cx="2.102" cy="2.102" r="2.102" transform="translate(9.784 9.784)"/>
    </g>
  </g>
</svg>
