<svg xmlns="http://www.w3.org/2000/svg" width="138.104" height="25.875" viewBox="0 0 138.104 25.875">
  <g id="그룹_287" data-name="그룹 287" transform="translate(-81 -45)">
    <g id="그룹_5" data-name="그룹 5" transform="translate(-122.69 -185.926)">
      <g id="그룹_4" data-name="그룹 4" transform="translate(203.69 235.926)">
        <path id="패스_8" data-name="패스 8" d="M226.548,256.8l-3.088-5.184h-9.743l1.7-2.917h6.316l-4.588-7.7L207.8,256.8H203.69l11.839-19.714a2.727,2.727,0,0,1,.736-.85,1.678,1.678,0,0,1,1.019-.312,1.614,1.614,0,0,1,1.006.312,2.825,2.825,0,0,1,.723.85L230.881,256.8Z" transform="translate(-203.69 -235.926)"/>
        <path id="패스_9" data-name="패스 9" d="M240.308,256.869V236.277h3.6v20.592Z" transform="translate(-210.709 -235.993)"/>
        <path id="패스_10" data-name="패스 10" d="M248.227,249.722v-2.407h6.8v2.407Z" transform="translate(-212.227 -238.109)"/>
        <path id="패스_11" data-name="패스 11" d="M259.755,256.869V236.277h15.069a10.275,10.275,0,0,1,2.733.34,6.194,6.194,0,0,1,2.111,1.006,4.526,4.526,0,0,1,1.36,1.671,5.289,5.289,0,0,1,.482,2.309,5.893,5.893,0,0,1-.227,1.728,4.02,4.02,0,0,1-.623,1.26,3.851,3.851,0,0,1-.92.879,4,4,0,0,1-1.091.524,4.634,4.634,0,0,1,2.323,1.643,4.816,4.816,0,0,1,.906,3,6.743,6.743,0,0,1-.467,2.563,5.586,5.586,0,0,1-1.331,1.968,5.851,5.851,0,0,1-2.1,1.261,8.1,8.1,0,0,1-2.734.439Zm6.2-8.951v-3.031h8.894a3.708,3.708,0,0,0,2.266-.566,2.287,2.287,0,0,0,.737-1.926,2.452,2.452,0,0,0-.312-1.318,2.04,2.04,0,0,0-.892-.765,4.385,4.385,0,0,0-1.388-.354,17.318,17.318,0,0,0-1.8-.085H263.352V253.3h10.424a10.507,10.507,0,0,0,1.784-.142,4.524,4.524,0,0,0,1.416-.467,2.467,2.467,0,0,0,.921-.836,2.327,2.327,0,0,0,.326-1.275,2.479,2.479,0,0,0-.793-1.968,3.433,3.433,0,0,0-2.323-.694Z" transform="translate(-214.437 -235.993)"/>
        <path id="패스_12" data-name="패스 12" d="M300.274,256.869a9.731,9.731,0,0,1-3.979-.808,9.8,9.8,0,0,1-5.269-5.538,11.363,11.363,0,0,1-.751-4.163,11.009,11.009,0,0,1,.751-4.136,9.175,9.175,0,0,1,2.1-3.186A9.429,9.429,0,0,1,296.295,237a10.722,10.722,0,0,1,3.979-.723h5.013a11.013,11.013,0,0,1,4.093.736,9.12,9.12,0,0,1,5.254,5.254,11.007,11.007,0,0,1,.736,4.093,11.364,11.364,0,0,1-.751,4.163,9.977,9.977,0,0,1-2.1,3.329,9.856,9.856,0,0,1-3.186,2.209,9.977,9.977,0,0,1-4.051.808Zm5.013-3.6a6.553,6.553,0,0,0,2.606-.509,6.161,6.161,0,0,0,3.4-3.54,7.407,7.407,0,0,0,.482-2.691,7.3,7.3,0,0,0-.482-2.677,6.062,6.062,0,0,0-3.4-3.484,6.722,6.722,0,0,0-2.606-.5h-5.013a6.539,6.539,0,0,0-2.563.5,6.063,6.063,0,0,0-2.026,1.374,6.323,6.323,0,0,0-1.331,2.1,7.258,7.258,0,0,0-.481,2.691,7.406,7.406,0,0,0,.481,2.691,6.415,6.415,0,0,0,1.331,2.138,6.136,6.136,0,0,0,2.026,1.4,6.376,6.376,0,0,0,2.563.509Z" transform="translate(-220.287 -235.993)"/>
        <path id="패스_13" data-name="패스 13" d="M341.962,256.869l-8.638-8.413-8.554,8.413H320.1l11.046-10.707-10.253-9.885h4.957l7.846,7.619,7.732-7.619H346.1l-10.253,9.885L347,256.869Z" transform="translate(-226.003 -235.993)"/>
      </g>
    </g>
    <text id="SE" transform="translate(203.104 59)" font-size="13" font-family="Roboto-Light, Roboto" font-weight="300" letter-spacing="0.044em"><tspan x="0" y="0">SE</tspan></text>
  </g>
</svg>
